# File produced by Open Asset Import Library (http://www.assimp.sf.net)
# (assimp v3.1.151580502)

mtllib rr3.mtl

# 104 vertex positions
v  -4.29225 1.04757 -0.122796
v  -7.17533 1.04757 -0.122796
v  -7.17533 1.04757 22.8718
v  -4.29225 1.04757 22.8718
v  -3.89907 1.04757 -0.122796
v  -3.89907 1.04757 22.8718
v  -0.905429 1.04757 22.8718
v  -0.905429 1.04757 -0.122796
v  -9.38779 1.61554 22.9227
v  -9.38779 1.01664 22.9227
v  -7.63856 1.01664 22.9227
v  -7.63856 1.61554 22.9227
v  -9.38779 1.61554 20.783
v  -7.63856 1.61554 20.783
v  -9.38779 1.01664 -0.116755
v  -9.38779 1.61554 -0.116755
v  -7.63856 1.61554 -0.116755
v  -7.63856 1.01664 -0.116755
v  -9.38779 1.01664 20.783
v  -7.63856 1.01664 20.783
v  -7.10984 1.61554 22.9227
v  -7.10984 1.61554 20.783
v  -7.10984 1.01664 -0.116755
v  -7.10984 1.61554 -0.116755
v  -7.10984 1.01664 22.9227
v  -7.10984 1.01664 20.783
v  -7.63856 1.61554 3.36654
v  -7.10984 1.61554 3.36654
v  -9.38779 1.61554 3.36654
v  -9.38779 1.01664 3.36654
v  -7.63856 1.01664 3.36654
v  -7.10984 1.01664 3.36654
v  -7.63856 1.61554 6.84982
v  -7.10984 1.61554 6.84982
v  -9.38779 1.61554 6.84982
v  -9.38779 1.01664 6.84982
v  -7.63856 1.01664 6.84982
v  -7.10984 1.01664 6.84982
v  -7.63856 1.61554 10.3331
v  -7.10984 1.61554 10.3331
v  -9.38779 1.61554 10.3331
v  -9.38779 1.01664 10.3331
v  -7.63856 1.01664 10.3331
v  -7.10984 1.01664 10.3331
v  -7.63856 1.61554 13.8164
v  -7.10984 1.61554 13.8164
v  -9.38779 1.61554 13.8164
v  -9.38779 1.01664 13.8164
v  -7.63856 1.01664 13.8164
v  -7.10984 1.01664 13.8164
v  -7.63856 1.61554 17.2997
v  -7.10984 1.61554 17.2997
v  -9.38779 1.61554 17.2997
v  -9.38779 1.01664 17.2997
v  -7.63856 1.01664 17.2997
v  -7.10984 1.01664 17.2997
v  1.22174 1.01664 22.9227
v  1.22174 1.61554 22.9227
v  -0.527492 1.61554 22.9227
v  -0.527492 1.01664 22.9227
v  -1.05621 1.01664 22.9227
v  -1.05621 1.61554 22.9227
v  -0.527492 1.61554 20.783
v  -1.05621 1.61554 20.783
v  1.22174 1.61554 20.783
v  1.22174 1.01664 20.783
v  -0.527492 1.01664 20.783
v  -1.05621 1.01664 20.783
v  -0.527492 1.61554 17.2997
v  -1.05621 1.61554 17.2997
v  1.22174 1.61554 17.2997
v  1.22174 1.01664 17.2997
v  -0.527492 1.01664 17.2997
v  -1.05621 1.01664 17.2997
v  1.22174 1.61554 -0.116755
v  1.22174 1.01664 -0.116755
v  -0.527492 1.01664 -0.116755
v  -0.527492 1.61554 -0.116755
v  1.22174 1.61554 3.36654
v  -0.527492 1.61554 3.36654
v  1.22174 1.01664 3.36654
v  -0.527492 1.01664 3.36654
v  -1.05621 1.61554 -0.116755
v  -1.05621 1.01664 -0.116755
v  -1.05621 1.01664 3.36654
v  -1.05621 1.61554 3.36654
v  -0.527492 1.61554 6.84982
v  -1.05621 1.61554 6.84982
v  1.22174 1.61554 6.84982
v  1.22174 1.01664 6.84982
v  -0.527492 1.01664 6.84982
v  -1.05621 1.01664 6.84982
v  -1.05621 1.61554 13.5515
v  -0.527492 1.61554 13.5515
v  1.22174 1.61554 13.5515
v  1.22174 1.01664 13.5515
v  -0.527492 1.01664 13.5515
v  -1.05621 1.01664 13.5515
v  -0.527492 1.61554 10.2441
v  1.22174 1.61554 10.2441
v  -1.05621 1.61554 10.2441
v  -1.05621 1.01664 10.2441
v  -0.527492 1.01664 10.2441
v  1.22174 1.01664 10.2441

# 192 UV coordinates
vt 0.758694 0.664403 0
vt 0.675557 0.664403 0
vt 0.675557 0.001329 0
vt 0.758694 0.001329 0
vt 0.770031 0.664403 0
vt 0.770031 0.001329 0
vt 0.856357 0.001329 0
vt 0.856357 0.664403 0
vt 0.927127 0.307267 0
vt 0.909857 0.307267 0
vt 0.909857 0.256826 0
vt 0.927127 0.256826 0
vt 0.001992 0.063031 0
vt 0.001992 0.001329 0
vt 0.052433 0.001329 0
vt 0.052433 0.063031 0
vt 0.974381 0.067016 0
vt 0.957111 0.067016 0
vt 0.957111 0.016575 0
vt 0.974381 0.016575 0
vt 0.315246 0.665699 0
vt 0.315246 0.603997 0
vt 0.365687 0.603997 0
vt 0.365687 0.665699 0
vt 0.645573 0.063031 0
vt 0.628303 0.063031 0
vt 0.628303 0.001329 0
vt 0.645573 0.001329 0
vt 0.067679 0.001329 0
vt 0.067679 0.063031 0
vt 0.974381 0.001329 0
vt 0.957111 0.001329 0
vt 0.380933 0.665699 0
vt 0.380933 0.603997 0
vt 0.927127 0.24158 0
vt 0.909857 0.24158 0
vt 0.052433 0.665699 0
vt 0.052433 0.565255 0
vt 0.067679 0.565255 0
vt 0.067679 0.665699 0
vt 0.001992 0.665699 0
vt 0.001992 0.565255 0
vt 0.645573 0.665699 0
vt 0.628303 0.665699 0
vt 0.628303 0.565255 0
vt 0.645573 0.565255 0
vt 0.315246 0.101773 0
vt 0.315246 0.001329 0
vt 0.365687 0.001329 0
vt 0.365687 0.101773 0
vt 0.380933 0.001329 0
vt 0.380933 0.101773 0
vt 0.879873 0.001329 0
vt 0.879873 0.101773 0
vt 0.862603 0.101773 0
vt 0.862603 0.001329 0
vt 0.052433 0.46481 0
vt 0.067679 0.46481 0
vt 0.001992 0.46481 0
vt 0.628303 0.46481 0
vt 0.645573 0.46481 0
vt 0.315246 0.202218 0
vt 0.365687 0.202218 0
vt 0.380933 0.202218 0
vt 0.879873 0.202218 0
vt 0.862603 0.202218 0
vt 0.052433 0.364365 0
vt 0.067679 0.364365 0
vt 0.001992 0.364365 0
vt 0.628303 0.364365 0
vt 0.645573 0.364365 0
vt 0.315246 0.302663 0
vt 0.365687 0.302663 0
vt 0.380933 0.302663 0
vt 0.879873 0.302663 0
vt 0.862603 0.302663 0
vt 0.052433 0.263921 0
vt 0.067679 0.263921 0
vt 0.001992 0.263921 0
vt 0.628303 0.263921 0
vt 0.645573 0.263921 0
vt 0.315246 0.403107 0
vt 0.365687 0.403107 0
vt 0.380933 0.403107 0
vt 0.879873 0.403107 0
vt 0.862603 0.403107 0
vt 0.052433 0.163476 0
vt 0.067679 0.163476 0
vt 0.001992 0.163476 0
vt 0.628303 0.163476 0
vt 0.645573 0.163476 0
vt 0.315246 0.503552 0
vt 0.365687 0.503552 0
vt 0.380933 0.503552 0
vt 0.879873 0.503552 0
vt 0.862603 0.503552 0
vt 0.879873 0.603997 0
vt 0.862603 0.603997 0
vt 0.909857 0.001329 0
vt 0.927127 0.001329 0
vt 0.927127 0.05177 0
vt 0.909857 0.05177 0
vt 0.909857 0.067016 0
vt 0.927127 0.067016 0
vt 0.257489 0.001329 0
vt 0.257489 0.063031 0
vt 0.242243 0.063031 0
vt 0.242243 0.001329 0
vt 0.30793 0.001329 0
vt 0.30793 0.063031 0
vt 0.6692 0.665699 0
vt 0.65193 0.665699 0
vt 0.65193 0.603997 0
vt 0.6692 0.603997 0
vt 0.621184 0.603997 0
vt 0.621184 0.665699 0
vt 0.570743 0.665699 0
vt 0.570743 0.603997 0
vt 0.555497 0.665699 0
vt 0.555497 0.603997 0
vt 0.257489 0.163476 0
vt 0.242243 0.163476 0
vt 0.30793 0.163476 0
vt 0.65193 0.503552 0
vt 0.6692 0.503552 0
vt 0.621184 0.503552 0
vt 0.570743 0.503552 0
vt 0.555497 0.503552 0
vt 0.9035 0.001329 0
vt 0.9035 0.101774 0
vt 0.88623 0.101774 0
vt 0.88623 0.001329 0
vt 0.980738 0.001329 0
vt 0.998008 0.001329 0
vt 0.998008 0.05177 0
vt 0.980738 0.05177 0
vt 0.30793 0.565255 0
vt 0.30793 0.665699 0
vt 0.257489 0.665699 0
vt 0.257489 0.565255 0
vt 0.621184 0.001329 0
vt 0.621184 0.101773 0
vt 0.570743 0.101773 0
vt 0.570743 0.001329 0
vt 0.9035 0.603997 0
vt 0.88623 0.603997 0
vt 0.88623 0.503552 0
vt 0.9035 0.503552 0
vt 0.6692 0.101773 0
vt 0.65193 0.101773 0
vt 0.65193 0.001329 0
vt 0.6692 0.001329 0
vt 0.242243 0.665699 0
vt 0.242243 0.565255 0
vt 0.555497 0.001329 0
vt 0.555497 0.101773 0
vt 0.980738 0.067016 0
vt 0.998008 0.067016 0
vt 0.257489 0.46481 0
vt 0.242243 0.46481 0
vt 0.30793 0.46481 0
vt 0.6692 0.202218 0
vt 0.65193 0.202218 0
vt 0.621184 0.202218 0
vt 0.570743 0.202218 0
vt 0.555497 0.202218 0
vt 0.9035 0.403108 0
vt 0.88623 0.403108 0
vt 0.242243 0.26482 0
vt 0.257489 0.26482 0
vt 0.30793 0.26482 0
vt 0.6692 0.402208 0
vt 0.65193 0.402208 0
vt 0.621184 0.402208 0
vt 0.570743 0.402208 0
vt 0.555497 0.402208 0
vt 0.88623 0.203118 0
vt 0.9035 0.203118 0
vt 0.950754 0.001329 0
vt 0.950754 0.175892 0
vt 0.933484 0.175892 0
vt 0.933484 0.001329 0
vt 0.257489 0.360191 0
vt 0.30793 0.360191 0
vt 0.242243 0.360191 0
vt 0.88623 0.298489 0
vt 0.9035 0.298489 0
vt 0.570743 0.306837 0
vt 0.555497 0.306837 0
vt 0.621184 0.306837 0
vt 0.6692 0.306837 0
vt 0.65193 0.306837 0

# 6 vertex normals
vn 0 1 0
vn 0 0 1
vn 0 0 -1
vn 0 -1 0
vn -1 0 0
vn 1 0 0

# Mesh 'g polySurface6_polySurface6' with 194 faces
g g polySurface6_polySurface6
usemtl lambert2SG
f  1/1/1 2/2/1 3/3/1
f  3/3/1 4/4/1 1/1/1
f  5/5/1 6/6/1 7/7/1
f  7/7/1 8/8/1 5/5/1
f  1/1/1 4/4/1 6/6/1
f  6/6/1 5/5/1 1/1/1
f  9/9/2 10/10/2 11/11/2
f  11/11/2 12/12/2 9/9/2
f  13/13/1 9/14/1 12/15/1
f  12/15/1 14/16/1 13/13/1
f  15/17/3 16/18/3 17/19/3
f  17/19/3 18/20/3 15/17/3
f  10/21/4 19/22/4 20/23/4
f  20/23/4 11/24/4 10/21/4
f  13/25/5 19/26/5 10/27/5
f  10/27/5 9/28/5 13/25/5
f  14/16/1 12/15/1 21/29/1
f  21/29/1 22/30/1 14/16/1
f  23/31/3 18/20/3 17/19/3
f  17/19/3 24/32/3 23/31/3
f  25/33/4 11/24/4 20/23/4
f  20/23/4 26/34/4 25/33/4
f  21/35/2 12/12/2 11/11/2
f  11/11/2 25/36/2 21/35/2
f  17/37/1 27/38/1 28/39/1
f  28/39/1 24/40/1 17/37/1
f  16/41/1 29/42/1 27/38/1
f  27/38/1 17/37/1 16/41/1
f  16/43/5 15/44/5 30/45/5
f  30/45/5 29/46/5 16/43/5
f  30/47/4 15/48/4 18/49/4
f  18/49/4 31/50/4 30/47/4
f  23/51/4 32/52/4 31/50/4
f  31/50/4 18/49/4 23/51/4
f  24/53/6 28/54/6 32/55/6
f  32/55/6 23/56/6 24/53/6
f  27/38/1 33/57/1 34/58/1
f  34/58/1 28/39/1 27/38/1
f  29/42/1 35/59/1 33/57/1
f  33/57/1 27/38/1 29/42/1
f  29/46/5 30/45/5 36/60/5
f  36/60/5 35/61/5 29/46/5
f  36/62/4 30/47/4 31/50/4
f  31/50/4 37/63/4 36/62/4
f  32/52/4 38/64/4 37/63/4
f  37/63/4 31/50/4 32/52/4
f  28/54/6 34/65/6 38/66/6
f  38/66/6 32/55/6 28/54/6
f  33/57/1 39/67/1 40/68/1
f  40/68/1 34/58/1 33/57/1
f  35/59/1 41/69/1 39/67/1
f  39/67/1 33/57/1 35/59/1
f  35/61/5 36/60/5 42/70/5
f  42/70/5 41/71/5 35/61/5
f  42/72/4 36/62/4 37/63/4
f  37/63/4 43/73/4 42/72/4
f  38/64/4 44/74/4 43/73/4
f  43/73/4 37/63/4 38/64/4
f  34/65/6 40/75/6 44/76/6
f  44/76/6 38/66/6 34/65/6
f  39/67/1 45/77/1 46/78/1
f  46/78/1 40/68/1 39/67/1
f  41/69/1 47/79/1 45/77/1
f  45/77/1 39/67/1 41/69/1
f  41/71/5 42/70/5 48/80/5
f  48/80/5 47/81/5 41/71/5
f  48/82/4 42/72/4 43/73/4
f  43/73/4 49/83/4 48/82/4
f  44/74/4 50/84/4 49/83/4
f  49/83/4 43/73/4 44/74/4
f  40/75/6 46/85/6 50/86/6
f  50/86/6 44/76/6 40/75/6
f  45/77/1 51/87/1 52/88/1
f  52/88/1 46/78/1 45/77/1
f  47/79/1 53/89/1 51/87/1
f  51/87/1 45/77/1 47/79/1
f  47/81/5 48/80/5 54/90/5
f  54/90/5 53/91/5 47/81/5
f  54/92/4 48/82/4 49/83/4
f  49/83/4 55/93/4 54/92/4
f  50/84/4 56/94/4 55/93/4
f  55/93/4 49/83/4 50/84/4
f  46/85/6 52/95/6 56/96/6
f  56/96/6 50/86/6 46/85/6
f  51/87/1 14/16/1 22/30/1
f  22/30/1 52/88/1 51/87/1
f  53/89/1 13/13/1 14/16/1
f  14/16/1 51/87/1 53/89/1
f  53/91/5 54/90/5 19/26/5
f  19/26/5 13/25/5 53/91/5
f  19/22/4 54/92/4 55/93/4
f  55/93/4 20/23/4 19/22/4
f  56/94/4 26/34/4 20/23/4
f  20/23/4 55/93/4 56/94/4
f  52/95/6 22/97/6 26/98/6
f  26/98/6 56/96/6 52/95/6
f  57/99/2 58/100/2 59/101/2
f  59/101/2 60/102/2 57/99/2
f  61/103/2 60/102/2 59/101/2
f  59/101/2 62/104/2 61/103/2
f  59/105/1 63/106/1 64/107/1
f  64/107/1 62/108/1 59/105/1
f  58/109/1 65/110/1 63/106/1
f  63/106/1 59/105/1 58/109/1
f  58/111/6 57/112/6 66/113/6
f  66/113/6 65/114/6 58/111/6
f  66/115/4 57/116/4 60/117/4
f  60/117/4 67/118/4 66/115/4
f  61/119/4 68/120/4 67/118/4
f  67/118/4 60/117/4 61/119/4
f  63/106/1 69/121/1 70/122/1
f  70/122/1 64/107/1 63/106/1
f  65/110/1 71/123/1 69/121/1
f  69/121/1 63/106/1 65/110/1
f  65/114/6 66/113/6 72/124/6
f  72/124/6 71/125/6 65/114/6
f  72/126/4 66/115/4 67/118/4
f  67/118/4 73/127/4 72/126/4
f  68/120/4 74/128/4 73/127/4
f  73/127/4 67/118/4 68/120/4
f  64/129/5 70/130/5 74/131/5
f  74/131/5 68/132/5 64/129/5
f  75/133/3 76/134/3 77/135/3
f  77/135/3 78/136/3 75/133/3
f  79/137/1 75/138/1 78/139/1
f  78/139/1 80/140/1 79/137/1
f  76/141/4 81/142/4 82/143/4
f  82/143/4 77/144/4 76/141/4
f  83/145/5 84/146/5 85/147/5
f  85/147/5 86/148/5 83/145/5
f  79/149/6 81/150/6 76/151/6
f  76/151/6 75/152/6 79/149/6
f  80/140/1 78/139/1 83/153/1
f  83/153/1 86/154/1 80/140/1
f  84/155/4 77/144/4 82/143/4
f  82/143/4 85/156/4 84/155/4
f  83/157/3 78/136/3 77/135/3
f  77/135/3 84/158/3 83/157/3
f  87/159/1 80/140/1 86/154/1
f  86/154/1 88/160/1 87/159/1
f  89/161/1 79/137/1 80/140/1
f  80/140/1 87/159/1 89/161/1
f  89/162/6 90/163/6 81/150/6
f  81/150/6 79/149/6 89/162/6
f  81/142/4 90/164/4 91/165/4
f  91/165/4 82/143/4 81/142/4
f  92/166/4 85/156/4 82/143/4
f  82/143/4 91/165/4 92/166/4
f  88/167/5 86/148/5 85/147/5
f  85/147/5 92/168/5 88/167/5
f  93/169/1 70/122/1 69/121/1
f  69/121/1 94/170/1 93/169/1
f  94/170/1 69/121/1 71/123/1
f  71/123/1 95/171/1 94/170/1
f  95/172/6 71/125/6 72/124/6
f  72/124/6 96/173/6 95/172/6
f  96/174/4 72/126/4 73/127/4
f  73/127/4 97/175/4 96/174/4
f  97/175/4 73/127/4 74/128/4
f  74/128/4 98/176/4 97/175/4
f  98/177/5 74/131/5 70/130/5
f  70/130/5 93/178/5 98/177/5
f  64/107/1 22/30/1 21/29/1
f  21/29/1 62/108/1 64/107/1
f  62/104/2 21/35/2 25/36/2
f  25/36/2 61/103/2 62/104/2
f  68/179/3 26/180/3 22/181/3
f  22/181/3 64/182/3 68/179/3
f  61/119/4 25/33/4 26/34/4
f  26/34/4 68/120/4 61/119/4
f  99/183/1 94/170/1 95/171/1
f  95/171/1 100/184/1 99/183/1
f  101/185/1 93/169/1 94/170/1
f  94/170/1 99/183/1 101/185/1
f  102/186/5 98/177/5 93/178/5
f  93/178/5 101/187/5 102/186/5
f  103/188/4 97/175/4 98/176/4
f  98/176/4 102/189/4 103/188/4
f  104/190/4 96/174/4 97/175/4
f  97/175/4 103/188/4 104/190/4
f  100/191/6 95/172/6 96/173/6
f  96/173/6 104/192/6 100/191/6
f  87/159/1 99/183/1 100/184/1
f  100/184/1 89/161/1 87/159/1
f  88/160/1 101/185/1 99/183/1
f  99/183/1 87/159/1 88/160/1
f  92/168/5 102/186/5 101/187/5
f  101/187/5 88/167/5 92/168/5
f  91/165/4 103/188/4 102/189/4
f  102/189/4 92/166/4 91/165/4
f  90/164/4 104/190/4 103/188/4
f  103/188/4 91/165/4 90/164/4
f  89/162/6 100/191/6 104/192/6
f  104/192/6 90/163/6 89/162/6

