# File produced by Open Asset Import Library (http://www.assimp.sf.net)
# (assimp v3.1.151580502)

mtllib rr2.mtl

# 160 vertex positions
v  -1.05869 1.01664 5.33343
v  -1.05869 1.61554 5.33343
v  -1.05452 1.61554 3.5842
v  -1.05452 1.01664 3.5842
v  -1.05327 1.01664 3.05548
v  -1.05327 1.61554 3.05548
v  2.04303 1.61554 3.59158
v  2.04429 1.61554 3.06286
v  2.03886 1.61554 5.34081
v  2.03886 1.01664 5.34081
v  2.04303 1.01664 3.59158
v  2.04429 1.01664 3.06286
v  5.14058 1.61554 3.59896
v  5.14184 1.61554 3.07024
v  5.13642 1.61554 5.34819
v  5.13642 1.01664 5.34819
v  5.14058 1.01664 3.59896
v  5.14184 1.01664 3.07024
v  8.23814 1.61554 3.60634
v  8.2394 1.61554 3.07762
v  8.23397 1.61554 5.35557
v  8.23397 1.01664 5.35557
v  8.23814 1.01664 3.60634
v  8.2394 1.01664 3.07762
v  11.3357 1.61554 3.61371
v  11.337 1.61554 3.085
v  11.3315 1.61554 5.36294
v  11.3315 1.01664 5.36294
v  11.3357 1.01664 3.61371
v  11.337 1.01664 3.085
v  11.3367 1.04757 -0.128879
v  11.3435 1.04757 -3.01196
v  -1.07005 1.04757 -3.0637
v  -1.07692 1.04757 -0.18062
v  11.3357 1.04757 0.264292
v  -1.07786 1.04757 0.212551
v  -1.08499 1.04757 3.20619
v  11.3286 1.04757 3.25793
v  -1.03342 1.61554 -5.27607
v  -1.03342 1.01664 -5.27607
v  -1.03759 1.01664 -3.52685
v  -1.03759 1.61554 -3.52685
v  2.06414 1.61554 -5.2687
v  2.05997 1.61554 -3.51947
v  2.06414 1.01664 -5.2687
v  2.05997 1.01664 -3.51947
v  -1.03884 1.61554 -2.99813
v  -1.03884 1.01664 -2.99813
v  2.05871 1.01664 -2.99075
v  2.05871 1.61554 -2.99075
v  11.3526 1.61554 -3.49733
v  8.25508 1.61554 -3.50471
v  8.25382 1.61554 -2.97599
v  11.3514 1.61554 -2.96862
v  11.3568 1.61554 -5.24656
v  8.25924 1.61554 -5.25394
v  11.3568 1.01664 -5.24656
v  8.25924 1.01664 -5.25394
v  11.3526 1.01664 -3.49733
v  8.25508 1.01664 -3.50471
v  11.3514 1.01664 -2.96862
v  8.25382 1.01664 -2.97599
v  5.15752 1.61554 -3.51209
v  5.15626 1.61554 -2.98337
v  5.16169 1.61554 -5.26132
v  5.16169 1.01664 -5.26132
v  5.15752 1.01664 -3.51209
v  5.15626 1.01664 -2.98337
v  1.22174 1.61554 -12.1912
v  1.22174 1.01664 -12.1912
v  -0.527492 1.01664 -12.1912
v  -0.527492 1.61554 -12.1912
v  1.22174 1.61554 -8.70789
v  -0.527492 1.61554 -8.70789
v  1.22174 1.01664 12.1918
v  1.22174 1.61554 12.1918
v  -0.527492 1.61554 12.1918
v  -0.527492 1.01664 12.1918
v  1.22174 1.01664 -8.70789
v  -0.527492 1.01664 -8.70789
v  -1.05621 1.61554 -12.1912
v  -1.05621 1.01664 -12.1912
v  -1.05621 1.01664 -8.70789
v  -1.05621 1.61554 -8.70789
v  -1.05621 1.01664 12.1918
v  -1.05621 1.61554 12.1918
v  -0.527492 1.61554 8.70856
v  -1.05621 1.61554 8.70856
v  1.22174 1.61554 8.70856
v  1.22174 1.01664 8.70856
v  -0.527492 1.01664 8.70856
v  -1.05621 1.01664 8.70856
v  -0.527492 1.61554 5.22527
v  -1.05621 1.61554 5.22527
v  1.22174 1.61554 5.22527
v  1.22174 1.01664 5.22527
v  -0.527492 1.01664 5.22527
v  -1.05621 1.01664 5.22527
v  -0.527492 1.61554 -5.2246
v  -1.05621 1.61554 -5.2246
v  1.22174 1.61554 -5.2246
v  1.22174 1.01664 -5.2246
v  -0.527492 1.01664 -5.2246
v  -1.05621 1.01664 -5.2246
v  -4.29225 1.04757 -12.1972
v  -7.17533 1.04757 -12.1972
v  -7.17533 1.04757 12.2271
v  -4.29225 1.04757 12.2271
v  -3.89907 1.04757 -12.1972
v  -3.89907 1.04757 12.2271
v  -0.905429 1.04757 12.2271
v  -0.905429 1.04757 -12.1972
v  -9.38779 1.61554 12.1918
v  -9.38779 1.01664 12.1918
v  -7.63856 1.01664 12.1918
v  -7.63856 1.61554 12.1918
v  -9.38779 1.61554 8.70856
v  -7.63856 1.61554 8.70856
v  -9.38779 1.01664 -12.1912
v  -9.38779 1.61554 -12.1912
v  -7.63856 1.61554 -12.1912
v  -7.63856 1.01664 -12.1912
v  -9.38779 1.01664 8.70856
v  -7.63856 1.01664 8.70856
v  -7.10984 1.61554 12.1918
v  -7.10984 1.01664 12.1918
v  -7.10984 1.01664 8.70856
v  -7.10984 1.61554 8.70856
v  -7.10984 1.01664 -12.1912
v  -7.10984 1.61554 -12.1912
v  -7.63856 1.61554 -8.70789
v  -7.10984 1.61554 -8.70789
v  -9.38779 1.61554 -8.70789
v  -9.38779 1.01664 -8.70789
v  -7.63856 1.01664 -8.70789
v  -7.10984 1.01664 -8.70789
v  -7.63856 1.61554 -5.2246
v  -7.10984 1.61554 -5.2246
v  -9.38779 1.61554 -5.2246
v  -9.38779 1.01664 -5.2246
v  -7.63856 1.01664 -5.2246
v  -7.10984 1.01664 -5.2246
v  -7.63856 1.61554 -1.74131
v  -7.10984 1.61554 -1.74131
v  -9.38779 1.61554 -1.74131
v  -9.38779 1.01664 -1.74131
v  -7.63856 1.01664 -1.74131
v  -7.10984 1.01664 -1.74131
v  -7.63856 1.61554 1.74198
v  -7.10984 1.61554 1.74198
v  -9.38779 1.61554 1.74198
v  -9.38779 1.01664 1.74198
v  -7.63856 1.01664 1.74198
v  -7.10984 1.01664 1.74198
v  -7.63856 1.61554 5.22527
v  -7.10984 1.61554 5.22527
v  -9.38779 1.61554 5.22527
v  -9.38779 1.01664 5.22527
v  -7.63856 1.01664 5.22527
v  -7.10984 1.01664 5.22527

# 225 UV coordinates
vt 0.73002 0.458666 0
vt 0.729972 0.43862 0
vt 0.788522 0.438482 0
vt 0.788569 0.458528 0
vt 0.806266 0.458487 0
vt 0.806219 0.438441 0
vt 0.788275 0.334801 0
vt 0.805972 0.334759 0
vt 0.806219 0.438439 0
vt 0.729725 0.334941 0
vt 0.709925 0.438668 0
vt 0.709679 0.334988 0
vt 0.651376 0.438807 0
vt 0.651129 0.335127 0
vt 0.633679 0.43885 0
vt 0.633432 0.335169 0
vt 0.613632 0.438897 0
vt 0.613386 0.335217 0
vt 0.633678 0.438849 0
vt 0.788028 0.231121 0
vt 0.805725 0.231079 0
vt 0.729479 0.23126 0
vt 0.709433 0.231308 0
vt 0.650883 0.231447 0
vt 0.633186 0.231489 0
vt 0.61314 0.231537 0
vt 0.787781 0.12744 0
vt 0.805478 0.127398 0
vt 0.729232 0.12758 0
vt 0.709186 0.127628 0
vt 0.650636 0.127766 0
vt 0.632939 0.127809 0
vt 0.612893 0.127857 0
vt 0.787534 0.02376 0
vt 0.805231 0.023718 0
vt 0.728986 0.0239 0
vt 0.70894 0.023947 0
vt 0.650389 0.024086 0
vt 0.632692 0.024128 0
vt 0.612647 0.024176 0
vt 0.632693 0.024129 0
vt 0.528608 0.465356 0
vt 0.625109 0.465126 0
vt 0.626841 0.880629 0
vt 0.53034 0.880859 0
vt 0.515447 0.465387 0
vt 0.517179 0.88089 0
vt 0.416977 0.881129 0
vt 0.415245 0.465626 0
vt 0.588778 0.438927 0
vt 0.588827 0.458973 0
vt 0.530277 0.459113 0
vt 0.530229 0.439067 0
vt 0.588532 0.335247 0
vt 0.529982 0.335386 0
vt 0.41624 0.439339 0
vt 0.415991 0.335659 0
vt 0.474541 0.335518 0
vt 0.474789 0.439199 0
vt 0.512532 0.439109 0
vt 0.492486 0.439156 0
vt 0.492238 0.335476 0
vt 0.512285 0.335428 0
vt 0.608577 0.335199 0
vt 0.608823 0.438879 0
vt 0.512581 0.459155 0
vt 0.529242 0.024345 0
vt 0.529488 0.128026 0
vt 0.511792 0.128068 0
vt 0.511545 0.024388 0
vt 0.587793 0.024206 0
vt 0.588039 0.127886 0
vt 0.607841 0.024159 0
vt 0.608087 0.127839 0
vt 0.415494 0.128298 0
vt 0.415246 0.024618 0
vt 0.473795 0.024477 0
vt 0.474044 0.128158 0
vt 0.491496 0.024435 0
vt 0.491743 0.128115 0
vt 0.529735 0.231706 0
vt 0.512039 0.231748 0
vt 0.588285 0.231566 0
vt 0.608332 0.231519 0
vt 0.415743 0.231978 0
vt 0.474292 0.231838 0
vt 0.491991 0.231796 0
vt 0.805184 0.003673 0
vt 0.805231 0.023719 0
vt 0.787487 0.003715 0
vt 0.728937 0.003853 0
vt 0.587744 0.00416 0
vt 0.529194 0.004299 0
vt 0.511545 0.024386 0
vt 0.511497 0.00434 0
vt 0.747789 0.998008 0
vt 0.747788 0.977962 0
vt 0.806339 0.977961 0
vt 0.806339 0.998007 0
vt 0.727741 0.86137 0
vt 0.727741 0.977962 0
vt 0.669191 0.977962 0
vt 0.669191 0.86137 0
vt 0.727741 0.464132 0
vt 0.72774 0.484178 0
vt 0.669191 0.484177 0
vt 0.669191 0.46413 0
vt 0.747787 0.86137 0
vt 0.806337 0.861369 0
vt 0.651494 0.977962 0
vt 0.631448 0.977962 0
vt 0.631448 0.86137 0
vt 0.651494 0.86137 0
vt 0.651494 0.46413 0
vt 0.651494 0.484176 0
vt 0.824036 0.977961 0
vt 0.824035 0.861369 0
vt 0.824036 0.998006 0
vt 0.824035 0.97796 0
vt 0.669191 0.600769 0
vt 0.651494 0.600769 0
vt 0.651493 0.484178 0
vt 0.727741 0.600769 0
vt 0.747787 0.484178 0
vt 0.747787 0.600769 0
vt 0.806336 0.484178 0
vt 0.806336 0.600769 0
vt 0.824033 0.484178 0
vt 0.824033 0.600769 0
vt 0.631447 0.600769 0
vt 0.631447 0.484178 0
vt 0.669191 0.717361 0
vt 0.651494 0.717361 0
vt 0.727741 0.717361 0
vt 0.747787 0.717361 0
vt 0.806336 0.717361 0
vt 0.824033 0.717361 0
vt 0.631448 0.717361 0
vt 0.669191 0.744778 0
vt 0.651494 0.744779 0
vt 0.727741 0.744779 0
vt 0.747787 0.744779 0
vt 0.806336 0.744778 0
vt 0.824033 0.744778 0
vt 0.631447 0.744779 0
vt 0.295547 0.820099 0
vt 0.199046 0.820099 0
vt 0.199046 0.002576 0
vt 0.295547 0.002576 0
vt 0.308707 0.820099 0
vt 0.308707 0.002576 0
vt 0.40891 0.002576 0
vt 0.40891 0.820099 0
vt 0.174186 0.83818 0
vt 0.174186 0.858226 0
vt 0.115636 0.858226 0
vt 0.115636 0.83818 0
vt 0.174186 0.721588 0
vt 0.115636 0.721588 0
vt 0.001645 0.022039 0
vt 0.001645 0.001992 0
vt 0.060195 0.001994 0
vt 0.060195 0.02204 0
vt 0.001645 0.83818 0
vt 0.001645 0.721588 0
vt 0.060195 0.721588 0
vt 0.060195 0.83818 0
vt 0.097938 0.83818 0
vt 0.077892 0.83818 0
vt 0.077892 0.721588 0
vt 0.097938 0.721588 0
vt 0.194232 0.721588 0
vt 0.194233 0.83818 0
vt 0.077892 0.022041 0
vt 0.077892 0.001995 0
vt 0.097939 0.838179 0
vt 0.097939 0.858225 0
vt 0.115634 0.022039 0
vt 0.115634 0.138631 0
vt 0.097937 0.138631 0
vt 0.097937 0.022039 0
vt 0.174184 0.022039 0
vt 0.174184 0.138631 0
vt 0.19423 0.022039 0
vt 0.19423 0.138631 0
vt 0.001645 0.138631 0
vt 0.060195 0.138631 0
vt 0.077891 0.022039 0
vt 0.077891 0.138631 0
vt 0.115635 0.255222 0
vt 0.097937 0.255222 0
vt 0.174185 0.255222 0
vt 0.194231 0.255222 0
vt 0.001645 0.255222 0
vt 0.060195 0.255222 0
vt 0.077891 0.255222 0
vt 0.115635 0.371814 0
vt 0.097938 0.371814 0
vt 0.174185 0.371814 0
vt 0.194231 0.371814 0
vt 0.001645 0.371814 0
vt 0.060195 0.371814 0
vt 0.077892 0.371814 0
vt 0.115635 0.488405 0
vt 0.097938 0.488405 0
vt 0.174185 0.488405 0
vt 0.194232 0.488405 0
vt 0.001645 0.488405 0
vt 0.060195 0.488405 0
vt 0.077892 0.488405 0
vt 0.115636 0.604997 0
vt 0.097938 0.604997 0
vt 0.174186 0.604997 0
vt 0.194232 0.604997 0
vt 0.001645 0.604997 0
vt 0.060195 0.604997 0
vt 0.077892 0.604997 0
vt 0.824033 0.71736 0
vt 0.824034 0.737406 0
vt 0.806337 0.737407 0
vt 0.747787 0.737407 0
vt 0.727741 0.724732 0
vt 0.669191 0.724732 0
vt 0.651494 0.744778 0
vt 0.651494 0.724732 0

# 17 vertex normals
vn -0.999997 0 -0.002383
vn -0.999997 0 -0.002382
vn -0.999997 0 -0.002379
vn 0 1 0
vn -0.002382 0 0.999997
vn 0 -1 0
vn 0.002382 0 -0.999997
vn -0.999997 0 -0.002384
vn 0.002381 0 -0.999997
vn -0.999997 0 -0.002377
vn 0.999997 0 0.002381
vn 0.999997 0 0.002382
vn 0.999997 0 0.002383
vn 0 0 -1
vn 0 0 1
vn -1 0 0
vn 1 0 0

# Mesh 'g pCube5_pCube5' with 280 faces
g g pCube5_pCube5
usemtl lambert2SG
f  1/1/1 2/2/1 3/3/2
f  3/3/2 4/4/2 1/1/1
f  5/5/3 4/4/2 3/3/2
f  3/3/2 6/6/3 5/5/3
f  3/3/4 7/7/4 8/8/4
f  8/8/4 6/9/4 3/3/4
f  2/2/4 9/10/4 7/7/4
f  7/7/4 3/3/4 2/2/4
f  2/2/5 1/11/5 10/12/5
f  10/12/5 9/10/5 2/2/5
f  10/12/6 1/11/6 4/13/6
f  4/13/6 11/14/6 10/12/6
f  5/15/6 12/16/6 11/14/6
f  11/14/6 4/13/6 5/15/6
f  6/17/7 8/18/7 12/16/7
f  12/16/7 5/19/7 6/17/7
f  7/7/4 13/20/4 14/21/4
f  14/21/4 8/8/4 7/7/4
f  9/10/4 15/22/4 13/20/4
f  13/20/4 7/7/4 9/10/4
f  9/10/5 10/12/5 16/23/5
f  16/23/5 15/22/5 9/10/5
f  16/23/6 10/12/6 11/14/6
f  11/14/6 17/24/6 16/23/6
f  12/16/6 18/25/6 17/24/6
f  17/24/6 11/14/6 12/16/6
f  8/18/7 14/26/7 18/25/7
f  18/25/7 12/16/7 8/18/7
f  13/20/4 19/27/4 20/28/4
f  20/28/4 14/21/4 13/20/4
f  15/22/4 21/29/4 19/27/4
f  19/27/4 13/20/4 15/22/4
f  15/22/5 16/23/5 22/30/5
f  22/30/5 21/29/5 15/22/5
f  22/30/6 16/23/6 17/24/6
f  17/24/6 23/31/6 22/30/6
f  18/25/6 24/32/6 23/31/6
f  23/31/6 17/24/6 18/25/6
f  14/26/7 20/33/7 24/32/7
f  24/32/7 18/25/7 14/26/7
f  19/27/4 25/34/4 26/35/4
f  26/35/4 20/28/4 19/27/4
f  21/29/4 27/36/4 25/34/4
f  25/34/4 19/27/4 21/29/4
f  21/29/5 22/30/5 28/37/5
f  28/37/5 27/36/5 21/29/5
f  28/37/6 22/30/6 23/31/6
f  23/31/6 29/38/6 28/37/6
f  24/32/6 30/39/6 29/38/6
f  29/38/6 23/31/6 24/32/6
f  20/33/7 26/40/7 30/41/7
f  30/41/7 24/32/7 20/33/7
f  31/42/4 32/43/4 33/44/4
f  33/44/4 34/45/4 31/42/4
f  35/46/4 36/47/4 37/48/4
f  37/48/4 38/49/4 35/46/4
f  31/42/4 34/45/4 36/47/4
f  36/47/4 35/46/4 31/42/4
f  39/50/8 40/51/8 41/52/2
f  41/52/2 42/53/2 39/50/8
f  43/54/4 39/50/4 42/53/4
f  42/53/4 44/55/4 43/54/4
f  40/56/6 45/57/6 46/58/6
f  46/58/6 41/59/6 40/56/6
f  47/60/5 48/61/5 49/62/5
f  49/62/5 50/63/5 47/60/5
f  43/54/7 45/64/7 40/65/9
f  40/65/9 39/50/9 43/54/7
f  44/55/4 42/53/4 47/60/4
f  47/60/4 50/63/4 44/55/4
f  48/61/6 41/59/6 46/58/6
f  46/58/6 49/62/6 48/61/6
f  47/60/10 42/53/2 41/52/2
f  41/52/2 48/66/10 47/60/10
f  51/67/4 52/68/4 53/69/4
f  53/69/4 54/70/4 51/67/4
f  55/71/4 56/72/4 52/68/4
f  52/68/4 51/67/4 55/71/4
f  55/71/7 57/73/7 58/74/7
f  58/74/7 56/72/7 55/71/7
f  58/75/6 57/76/6 59/77/6
f  59/77/6 60/78/6 58/75/6
f  61/79/6 62/80/6 60/78/6
f  60/78/6 59/77/6 61/79/6
f  54/70/5 53/69/5 62/80/5
f  62/80/5 61/79/5 54/70/5
f  52/68/4 63/81/4 64/82/4
f  64/82/4 53/69/4 52/68/4
f  56/72/4 65/83/4 63/81/4
f  63/81/4 52/68/4 56/72/4
f  56/72/7 58/74/7 66/84/7
f  66/84/7 65/83/7 56/72/7
f  66/85/6 58/75/6 60/78/6
f  60/78/6 67/86/6 66/85/6
f  62/80/6 68/87/6 67/86/6
f  67/86/6 60/78/6 62/80/6
f  53/69/5 64/82/5 68/87/5
f  68/87/5 62/80/5 53/69/5
f  63/81/4 44/55/4 50/63/4
f  50/63/4 64/82/4 63/81/4
f  65/83/4 43/54/4 44/55/4
f  44/55/4 63/81/4 65/83/4
f  65/83/7 66/84/7 45/64/7
f  45/64/7 43/54/7 65/83/7
f  45/57/6 66/85/6 67/86/6
f  67/86/6 46/58/6 45/57/6
f  68/87/6 49/62/6 46/58/6
f  46/58/6 67/86/6 68/87/6
f  64/82/5 50/63/5 49/62/5
f  49/62/5 68/87/5 64/82/5
f  30/88/11 26/89/11 25/34/12
f  25/34/12 29/90/12 30/88/11
f  29/90/12 25/34/12 27/36/13
f  27/36/13 28/91/13 29/90/12
f  57/92/11 55/71/11 51/67/11
f  51/67/11 59/93/11 57/92/11
f  59/93/11 51/67/11 54/94/11
f  54/94/11 61/95/11 59/93/11
f  69/96/14 70/97/14 71/98/14
f  71/98/14 72/99/14 69/96/14
f  73/100/4 69/101/4 72/102/4
f  72/102/4 74/103/4 73/100/4
f  75/104/15 76/105/15 77/106/15
f  77/106/15 78/107/15 75/104/15
f  70/97/6 79/108/6 80/109/6
f  80/109/6 71/98/6 70/97/6
f  81/110/16 82/111/16 83/112/16
f  83/112/16 84/113/16 81/110/16
f  73/100/17 79/108/17 70/97/17
f  70/97/17 69/101/17 73/100/17
f  74/103/4 72/102/4 81/110/4
f  81/110/4 84/113/4 74/103/4
f  85/114/15 78/107/15 77/106/15
f  77/106/15 86/115/15 85/114/15
f  82/116/6 71/98/6 80/109/6
f  80/109/6 83/117/6 82/116/6
f  81/118/14 72/99/14 71/98/14
f  71/98/14 82/119/14 81/118/14
f  77/106/4 87/120/4 88/121/4
f  88/121/4 86/122/4 77/106/4
f  76/105/4 89/123/4 87/120/4
f  87/120/4 77/106/4 76/105/4
f  76/105/17 75/124/17 90/125/17
f  90/125/17 89/123/17 76/105/17
f  90/125/6 75/124/6 78/126/6
f  78/126/6 91/127/6 90/125/6
f  85/128/6 92/129/6 91/127/6
f  91/127/6 78/126/6 85/128/6
f  86/122/16 88/121/16 92/130/16
f  92/130/16 85/131/16 86/122/16
f  87/120/4 93/132/4 94/133/4
f  94/133/4 88/121/4 87/120/4
f  89/123/4 95/134/4 93/132/4
f  93/132/4 87/120/4 89/123/4
f  89/123/17 90/125/17 96/135/17
f  96/135/17 95/134/17 89/123/17
f  96/135/6 90/125/6 91/127/6
f  91/127/6 97/136/6 96/135/6
f  92/129/6 98/137/6 97/136/6
f  97/136/6 91/127/6 92/129/6
f  88/121/16 94/133/16 98/138/16
f  98/138/16 92/130/16 88/121/16
f  99/139/4 74/103/4 84/113/4
f  84/113/4 100/140/4 99/139/4
f  101/141/4 73/100/4 74/103/4
f  74/103/4 99/139/4 101/141/4
f  101/141/17 102/142/17 79/108/17
f  79/108/17 73/100/17 101/141/17
f  79/108/6 102/142/6 103/143/6
f  103/143/6 80/109/6 79/108/6
f  104/144/6 83/117/6 80/109/6
f  80/109/6 103/143/6 104/144/6
f  100/140/16 84/113/16 83/112/16
f  83/112/16 104/145/16 100/140/16
f  105/146/4 106/147/4 107/148/4
f  107/148/4 108/149/4 105/146/4
f  109/150/4 110/151/4 111/152/4
f  111/152/4 112/153/4 109/150/4
f  105/146/4 108/149/4 110/151/4
f  110/151/4 109/150/4 105/146/4
f  113/154/15 114/155/15 115/156/15
f  115/156/15 116/157/15 113/154/15
f  117/158/4 113/154/4 116/157/4
f  116/157/4 118/159/4 117/158/4
f  119/160/14 120/161/14 121/162/14
f  121/162/14 122/163/14 119/160/14
f  114/164/6 123/165/6 124/166/6
f  124/166/6 115/167/6 114/164/6
f  125/168/17 126/169/17 127/170/17
f  127/170/17 128/171/17 125/168/17
f  117/158/16 123/172/16 114/173/16
f  114/173/16 113/154/16 117/158/16
f  118/159/4 116/157/4 125/168/4
f  125/168/4 128/171/4 118/159/4
f  129/174/14 122/163/14 121/162/14
f  121/162/14 130/175/14 129/174/14
f  126/169/6 115/167/6 124/166/6
f  124/166/6 127/170/6 126/169/6
f  125/176/15 116/157/15 115/156/15
f  115/156/15 126/177/15 125/176/15
f  121/178/4 131/179/4 132/180/4
f  132/180/4 130/181/4 121/178/4
f  120/182/4 133/183/4 131/179/4
f  131/179/4 121/178/4 120/182/4
f  120/182/16 119/184/16 134/185/16
f  134/185/16 133/183/16 120/182/16
f  134/186/6 119/160/6 122/163/6
f  122/163/6 135/187/6 134/186/6
f  129/188/6 136/189/6 135/187/6
f  135/187/6 122/163/6 129/188/6
f  130/181/17 132/180/17 136/189/17
f  136/189/17 129/188/17 130/181/17
f  131/179/4 137/190/4 138/191/4
f  138/191/4 132/180/4 131/179/4
f  133/183/4 139/192/4 137/190/4
f  137/190/4 131/179/4 133/183/4
f  133/183/16 134/185/16 140/193/16
f  140/193/16 139/192/16 133/183/16
f  140/194/6 134/186/6 135/187/6
f  135/187/6 141/195/6 140/194/6
f  136/189/6 142/196/6 141/195/6
f  141/195/6 135/187/6 136/189/6
f  132/180/17 138/191/17 142/196/17
f  142/196/17 136/189/17 132/180/17
f  137/190/4 143/197/4 144/198/4
f  144/198/4 138/191/4 137/190/4
f  139/192/4 145/199/4 143/197/4
f  143/197/4 137/190/4 139/192/4
f  139/192/16 140/193/16 146/200/16
f  146/200/16 145/199/16 139/192/16
f  146/201/6 140/194/6 141/195/6
f  141/195/6 147/202/6 146/201/6
f  142/196/6 148/203/6 147/202/6
f  147/202/6 141/195/6 142/196/6
f  138/191/17 144/198/17 148/203/17
f  148/203/17 142/196/17 138/191/17
f  143/197/4 149/204/4 150/205/4
f  150/205/4 144/198/4 143/197/4
f  145/199/4 151/206/4 149/204/4
f  149/204/4 143/197/4 145/199/4
f  145/199/16 146/200/16 152/207/16
f  152/207/16 151/206/16 145/199/16
f  152/208/6 146/201/6 147/202/6
f  147/202/6 153/209/6 152/208/6
f  148/203/6 154/210/6 153/209/6
f  153/209/6 147/202/6 148/203/6
f  144/198/17 150/205/17 154/210/17
f  154/210/17 148/203/17 144/198/17
f  149/204/4 155/211/4 156/212/4
f  156/212/4 150/205/4 149/204/4
f  151/206/4 157/213/4 155/211/4
f  155/211/4 149/204/4 151/206/4
f  151/206/16 152/207/16 158/214/16
f  158/214/16 157/213/16 151/206/16
f  158/215/6 152/208/6 153/209/6
f  153/209/6 159/216/6 158/215/6
f  154/210/6 160/217/6 159/216/6
f  159/216/6 153/209/6 154/210/6
f  150/205/17 156/212/17 160/217/17
f  160/217/17 154/210/17 150/205/17
f  155/211/4 118/159/4 128/171/4
f  128/171/4 156/212/4 155/211/4
f  157/213/4 117/158/4 118/159/4
f  118/159/4 155/211/4 157/213/4
f  157/213/16 158/214/16 123/172/16
f  123/172/16 117/158/16 157/213/16
f  123/165/6 158/215/6 159/216/6
f  159/216/6 124/166/6 123/165/6
f  160/217/6 127/170/6 124/166/6
f  124/166/6 159/216/6 160/217/6
f  156/212/17 128/171/17 127/170/17
f  127/170/17 160/217/17 156/212/17
f  98/218/14 94/219/14 93/220/14
f  93/220/14 97/136/14 98/218/14
f  97/136/14 93/220/14 95/221/14
f  95/221/14 96/135/14 97/136/14
f  102/222/15 101/141/15 99/139/15
f  99/139/15 103/223/15 102/222/15
f  103/223/15 99/139/15 100/224/15
f  100/224/15 104/225/15 103/223/15

